<svg width="179" height="193" viewBox="0 0 179 193" fill="none" xmlns="http://www.w3.org/2000/svg">
<path d="M6.81574 66.8403C27.1857 79.7203 47.8157 92.1803 68.3857 104.72C74.5257 108.47 81.3857 110.13 89.1957 110.8C96.9404 110.549 104.484 108.274 111.076 104.2C130.266 92.2003 149.526 80.3603 168.706 68.3503C181.146 60.5703 181.056 51.2203 168.476 43.2903C148.596 30.7403 128.766 18.1003 108.696 5.84027C97.0757 -1.24973 84.4157 -2.15972 72.5957 4.63028C50.4657 17.4403 28.7457 30.9503 7.07572 44.5303C-2.25428 50.3803 -2.37426 61.0203 6.81574 66.8403ZM29.2657 45.4903C46.2591 34.9903 63.3324 24.6169 80.4857 14.3703C82.9157 12.9303 86.0657 12.7003 88.0957 12.1303C93.7157 12.6703 98.3557 13.5903 102.446 16.0503C117.576 25.1303 132.566 34.4303 147.716 43.4703C153.846 47.1303 155.286 50.1303 148.056 54.3603C131.056 64.3003 114.236 74.5503 97.3957 84.7703C91.5857 88.3003 86.0857 87.2303 80.7757 83.9903C63.9657 73.7103 47.2557 63.2703 30.4457 52.9903C26.8257 50.8003 24.2957 48.5603 29.2657 45.4903Z" fill="url(#paint0_linear_85_207)"/>
<path d="M176.046 131.74C171.286 125.13 165.046 125.79 158.896 129.52C140.286 140.73 121.486 151.68 103.286 163.52C93.5359 169.87 85.4159 169.7 75.7759 163.32C57.9059 151.48 39.4759 140.47 21.1359 129.32C12.9259 124.32 5.61587 125.68 1.83587 132.14C-1.83413 138.41 0.275863 144.66 8.32586 149.71C27.2392 161.57 46.2392 173.317 65.3259 184.95C72.6759 189.44 80.4959 192.79 89.4259 192.02C98.0459 192.69 105.666 189.84 112.776 185.37C132.169 173.157 151.539 160.917 170.886 148.65C177.706 144.37 180.086 137.32 176.046 131.74Z" fill="url(#paint1_linear_85_207)"/>
<path d="M6.82593 107.92C27.2193 120.734 47.7259 133.347 68.3459 145.76C74.6659 149.56 81.8359 151.5 90.8159 151.52C96.6859 151.84 103.396 149.58 109.496 145.92C122.576 138.07 135.496 129.92 148.406 121.79C156.606 116.63 164.896 111.6 172.766 105.98C177.836 102.36 179.626 96.9803 176.136 91.2503C172.646 85.5203 167.136 85.2503 161.406 87.4603C159.766 88.1178 158.187 88.9175 156.686 89.8503C138.596 100.85 120.256 111.36 102.566 122.93C93.4259 128.93 85.9859 129.08 76.7959 122.99C58.1959 110.68 38.9859 99.3203 19.9259 87.6403C12.9759 83.3903 6.02593 84.6903 2.14593 90.5303C-1.73407 96.3703 -0.224074 103.49 6.82593 107.92Z" fill="url(#paint2_linear_85_207)"/>
<path d="M56.7058 49.1603C64.1658 53.8703 71.5358 58.7703 79.2558 63.0103C82.2291 64.701 85.5739 65.6313 88.9931 65.7185C92.4124 65.8058 95.8002 65.0472 98.8558 63.5103C107.226 59.2903 115.076 54.0003 123.016 48.9503C126.296 46.8703 128.836 42.9503 125.136 40.2703C114.296 32.5103 104.006 23.2703 89.2158 21.8003C75.4858 23.7003 65.3558 33.2003 54.2958 40.5703C50.7158 42.9603 53.3558 47.0403 56.7058 49.1603Z" fill="url(#paint3_linear_85_207)"/>
<defs>
<linearGradient id="paint0_linear_85_207" x1="18.6757" y1="55.3903" x2="196.646" y2="55.3903" gradientUnits="userSpaceOnUse">
<stop stop-color="#3D66B0"/>
<stop offset="1" stop-color="#6ECEEA"/>
</linearGradient>
<linearGradient id="paint1_linear_85_207" x1="11.5459" y1="159.28" x2="189.476" y2="159.28" gradientUnits="userSpaceOnUse">
<stop stop-color="#3D66B0"/>
<stop offset="1" stop-color="#6ECEEA"/>
</linearGradient>
<linearGradient id="paint2_linear_85_207" x1="11.0859" y1="118.35" x2="188.996" y2="118.35" gradientUnits="userSpaceOnUse">
<stop stop-color="#3D66B0"/>
<stop offset="1" stop-color="#6ECEEA"/>
</linearGradient>
<linearGradient id="paint3_linear_85_207" x1="76.6558" y1="24.8403" x2="103.246" y2="62.8103" gradientUnits="userSpaceOnUse">
<stop stop-color="#6ECEEA"/>
<stop offset="0.43" stop-color="#5AA4D3"/>
<stop offset="1" stop-color="#3D66B0"/>
</linearGradient>
</defs>
</svg>
